#!OML:ASF H:\Terrain\Patient Classification 1\Terrain2\Thursday\justin.ASF
:FULLY-SPECIFIED
:DEGREES
1859
root 27.3624 18.2249 -0.124211 277.181 85.8468 -74.55
lowerback 7.25136 -0.940917 0.954539
upperback 3.9388 -1.00458 3.75597
thorax 0.0537773 -0.457134 3.41096
lowerneck -11.9674 -3.08084 -10.3856
upperneck 39.0368 -1.77833 4.96902
head 16.1216 -1.02558 3.91196
rclavicle -9.6659e-015 -1.59028e-014
rhumerus -41.1337 -21.6351 -69.8247
rradius 25.0064
rwrist -3.36702
rhand -12.3915 10.3821
rfingers 7.12502
rthumb 13.6797 -19.1483
lclavicle -9.6659e-015 -1.59028e-014
lhumerus -38.0491 9.55469 82.8449
lradius 33.049
lwrist 2.72138
lhand -16.8869 21.8718
lfingers 7.12502
lthumb 9.34446 -308.355
rfemur -12.2628 -15.2853 15.3591
rtibia 95.7203
rfoot -19.4599 -5.16978
rtoes -4.64398
lfemur 5.95322 -1.50873 -17.6363
ltibia -1.90833e-014
lfoot 7.81353 -13.6999
ltoes 10.8553
1860
root 27.3884 18.232 -0.126893 274.332 85.8725 -77.6249
lowerback 7.28998 -0.958732 0.969136
upperback 3.94293 -1.02826 3.66786
thorax 0.035735 -0.46843 3.31337
lowerneck -12.0009 -3.14022 -10.2334
upperneck 38.7793 -1.9882 5.08738
head 16.013 -1.0775 3.88751
rclavicle -3.18055e-015 -3.33958e-014
rhumerus -41.1632 -20.6085 -70.9407
rradius 26.1428
rwrist -4.01346
rhand -13.0379 10.6967
rfingers 7.12502
rthumb 13.0567 -18.8746
lclavicle -3.18055e-015 -3.33958e-014
lhumerus -37.7416 7.78718 83.2102
lradius 34.4083
lwrist 3.70996
lhand -16.6254 21.4976
lfingers 7.12502
lthumb 9.59683 -308.741
rfemur -13.4401 -15.8977 15.7564
rtibia 95.5429
rfoot -19.6742 -5.24853
rtoes -5.61381
lfemur 5.77712 -1.4683 -17.6383
ltibia -3.10104e-014
lfoot 7.74217 -13.7316
ltoes 11.7225
1861
root 27.4152 18.2441 -0.127719 271.965 86.0756 -80.1554
lowerback 7.43754 -1.03818 0.555709
upperback 3.97694 -1.15393 3.73502
thorax 0.00640846 -0.537529 3.62851
lowerneck -12.3854 -3.18091 -10.6066
upperneck 38.7992 -2.02847 5.38103
head 16.1351 -1.11649 4.08155
rclavicle -1.09829e-014 4.77083e-015
rhumerus -40.9287 -19.4031 -71.6805
rradius 27.2208
rwrist -4.78206
rhand -13.729 10.4902
rfingers 7.12502
rthumb 12.3904 -19.1226
lclavicle -1.09829e-014 4.77083e-015
lhumerus -37.5242 6.79249 83.6541
lradius 35.856
lwrist 4.87181
lhand -17.1962 21.3857
lfingers 7.12502
lthumb 9.04606 -308.828
rfemur -14.5186 -16.621 15.7045
rtibia 95.2737
rfoot -19.7916 -4.35264
rtoes -2.83173
lfemur 5.68136 -1.39743 -17.7957
ltibia -1.59028e-014
lfoot 7.91119 -13.7935
ltoes 14.0049
1862
root 27.4381 18.2552 -0.127403 271.077 86.497 -81.2844
lowerback 7.54501 -1.02328 0.0246397
upperback 3.99626 -1.1693 3.68075
thorax -0.0214273 -0.553872 3.87569
lowerneck -12.5914 -3.17181 -10.7311
upperneck 38.5235 -2.0377 5.4987
head 16.0457 -1.12671 4.13873
rclavicle 1.55052e-014 -7.95139e-015
rhumerus -40.7994 -18.5263 -72.2312
rradius 28.5224
rwrist -6.1493
rhand -13.7355 10.4259
rfingers 7.12502
rthumb 12.3841 -19.1872
lclavicle 1.55052e-014 -7.95139e-015
lhumerus -37.2789 6.19235 83.8804
lradius 37.2508
lwrist 5.3357
lhand -17.6275 20.9091
lfingers 7.12502
lthumb 8.62984 -309.287
rfemur -15.836 -17.1976 15.4463
rtibia 94.9558
rfoot -19.6969 -3.28644
rtoes 0.226436
lfemur 5.4861 -1.21937 -18.2011
ltibia 3.49861e-014
lfoot 8.10567 -13.8074
ltoes 16.7776
1863
root 27.4583 18.2509 -0.129211 269.317 86.715 -83.2968
lowerback 7.62925 -1.03159 -0.183926
upperback 3.99926 -1.19491 3.60528
thorax -0.0601449 -0.5696 3.91879
lowerneck -12.6131 -3.14529 -10.6344
upperneck 38.0479 -2.05968 5.45914
head 15.8032 -1.12936 4.07084
rclavicle 1.49585e-014 -1.43125e-014
rhumerus -40.7263 -17.9217 -72.7142
rradius 29.7576
rwrist -7.27161
rhand -14.1214 10.7398
rfingers 7.12502
rthumb 12.0121 -18.8955
lclavicle 1.49585e-014 -1.43125e-014
lhumerus -36.9852 5.45725 83.9389
lradius 38.4915
lwrist 5.42833
lhand -18.1657 20.4736
lfingers 7.12502
lthumb 8.11045 -309.702
rfemur -17.1316 -17.7326 15.5387
rtibia 94.5017
rfoot -19.3493 -2.7024
rtoes 0.402963
lfemur 5.25098 -1.07677 -18.4351
ltibia 1.39149e-014
lfoot 8.02687 -13.8024
ltoes 17.664
1864
root 27.4806 18.2398 -0.135168 266.151 86.8275 -86.6734
lowerback 7.76366 -1.13386 -0.386425
upperback 3.97131 -1.34116 3.625
thorax -0.14712 -0.645019 4.06849
lowerneck -12.6915 -3.11265 -10.5968
upperneck 37.7729 -2.00262 5.34234
head 15.6731 -1.11879 4.00546
rclavicle 1.74931e-014 3.02153e-014
rhumerus -40.6093 -17.1425 -73.1399
rradius 30.7451
rwrist -7.79831
rhand -15.7277 11.37
rfingers 7.12502
rthumb 10.4628 -18.3496
lclavicle 1.74931e-014 3.02153e-014
lhumerus -36.7535 5.11336 83.936
lradius 39.6458
lwrist 5.42426
lhand -18.4802 20.1717
lfingers 7.12502
lthumb 7.80683 -309.992
rfemur -18.2431 -18.4466 15.7096
rtibia 93.8678
rfoot -18.7798 -2.40813
rtoes -0.817407
lfemur 5.05966 -1.00135 -18.5876
ltibia 3.77691e-014
lfoot 7.99731 -13.9358
ltoes 17.8697
1865
root 27.5072 18.2322 -0.138349 264.608 86.9106 -88.4736
lowerback 7.75781 -1.21969 -0.526412
upperback 3.95352 -1.46643 3.60565
thorax -0.14962 -0.710237 4.13715
lowerneck -12.8282 -3.04678 -10.4764
upperneck 37.6206 -1.89928 5.21506
head 15.6125 -1.07835 3.93627
rclavicle 5.1684e-015 -3.18055e-015
rhumerus -40.5161 -16.4937 -73.615
rradius 31.6278
rwrist -7.96491
rhand -17.1725 12.1336
rfingers 7.12502
rthumb 9.06893 -17.6514
lclavicle 5.1684e-015 -3.18055e-015
lhumerus -36.5728 4.63266 83.8961
lradius 40.9177
lwrist 5.87051
lhand -18.8739 19.847
lfingers 7.12502
lthumb 7.42687 -310.303
rfemur -19.3121 -19.0943 15.9048
rtibia 93.1004
rfoot -18.2542 -2.03038
rtoes -0.807269
lfemur 4.83904 -0.831542 -18.6989
ltibia -3.97569e-015
lfoot 8.06252 -14.2251
ltoes 17.8536
1866
root 27.5351 18.2248 -0.138914 264.795 87.0231 -88.4811
lowerback 7.78894 -1.27733 -0.729193
upperback 3.94458 -1.55523 3.66843
thorax -0.161086 -0.757978 4.32547
lowerneck -12.9099 -2.96509 -10.5974
upperneck 37.485 -1.70756 5.10948
head 15.5454 -1.03098 3.93542
rclavicle -9.64106e-015 1.59028e-015
rhumerus -40.4279 -15.7354 -73.9107
rradius 32.5001
rwrist -8.3421
rhand -17.9086 12.7303
rfingers 7.12502
rthumb 8.35857 -17.0843
lclavicle -9.64106e-015 1.59028e-015
lhumerus -36.4228 4.19554 84.0039
lradius 42.1966
lwrist 6.50048
lhand -19.0458 19.4263
lfingers 7.12502
lthumb 7.26095 -310.718
rfemur -20.2584 -19.4674 16.0577
rtibia 92.2067
rfoot -17.3813 -1.57856
rtoes -1.18493
lfemur 4.74553 -0.56306 -18.804
ltibia -2.22639e-014
lfoot 7.98053 -14.4402
ltoes 18.1292
1867
root 27.5601 18.2167 -0.139292 262.566 87.2565 -90.8124
lowerback 7.99707 -1.3432 -1.15647
upperback 3.93955 -1.66647 3.78074
thorax -0.254185 -0.818682 4.70053
lowerneck -12.9406 -2.94025 -10.9173
upperneck 37.249 -1.56986 5.04065
head 15.4284 -1.02889 3.97144
rclavicle 1.36167e-014 -1.59028e-014
rhumerus -40.2738 -14.7585 -74.098
rradius 33.4521
rwrist -9.00194
rhand -18.1502 12.7734
rfingers 7.12502
rthumb 8.12536 -17.0504
lclavicle 1.36167e-014 -1.59028e-014
lhumerus -36.224 3.95086 84.1892
lradius 43.3904
lwrist 6.8591
lhand -18.732 19.1106
lfingers 7.12502
lthumb 7.56384 -311.045
rfemur -21.0245 -19.8815 16.0476
rtibia 91.1738
rfoot -16.0895 -1.3094
rtoes -1.77376
lfemur 4.74564 -0.397275 -19.0289
ltibia 3.10104e-014
lfoot 8.03083 -14.5406
ltoes 19.8382
1868
root 27.5798 18.2029 -0.148112 260.998 87.3021 -92.5143
lowerback 8.20667 -1.38496 -1.22131
upperback 3.93787 -1.72207 3.80604
thorax -0.363292 -0.845025 4.77483
lowerneck -13.0521 -2.98188 -11.0885
upperneck 37.0351 -1.62869 5.12601
head 15.3597 -1.06899 4.01771
rclavicle -3.77691e-014 4.6118e-014
rhumerus -40.0883 -14.0913 -74.3895
rradius 34.4265
rwrist -9.82421
rhand -18.4259 12.2917
rfingers 7.12502
rthumb 7.85927 -17.5422
lclavicle -3.77691e-014 4.6118e-014
lhumerus -35.9526 3.37253 84.2709
lradius 44.5022
lwrist 7.38771
lhand -18.8688 19.0128
lfingers 7.12502
lthumb 7.4318 -311.138
rfemur -21.7826 -20.3368 16.2723
rtibia 90.0633
rfoot -14.7992 -1.00326
rtoes 0.919425
lfemur 2.86166 -0.21941 -19.0566
ltibia 3.56109
lfoot 6.4394 -15.1164
ltoes 21.2195
1869
root 27.5997 18.1794 -0.160029 260.978 87.5852 -92.7613
lowerback 8.28341 -1.34729 -1.43388
upperback 3.90645 -1.69076 3.72854
thorax -0.436682 -0.831245 4.81486
lowerneck -13.2505 -3.03298 -11.2469
upperneck 36.9601 -1.72816 5.3329
head 15.3851 -1.10842 4.11633
rclavicle -1.98288e-014 -2.38542e-015
rhumerus -39.8804 -13.7394 -74.5881
rradius 35.1553
rwrist -10.4517
rhand -19.2929 12.1552
rfingers 7.12502
rthumb 7.02242 -17.7083
lclavicle -1.98288e-014 -2.38542e-015
lhumerus -35.609 2.8249 84.2633
lradius 45.4603
lwrist 8.08289
lhand -19.4351 18.7448
lfingers 7.12502
lthumb 6.88513 -311.387
rfemur -22.6094 -20.7317 16.2107
rtibia 88.9338
rfoot -13.5062 -0.465254
rtoes 4.54609
lfemur 1.36044 0.0683598 -19.3424
ltibia 6.18875
lfoot 5.24471 -15.6611
ltoes 22.5254
1870
root 27.6252 18.1519 -0.152946 259.274 88.0592 -94.6362
lowerback 8.30732 -1.28244 -2.03635
upperback 3.91259 -1.65461 3.65327
thorax -0.429448 -0.822346 5.0769
lowerneck -13.3591 -3.06573 -11.4983
upperneck 36.7944 -1.7606 5.47551
head 15.3397 -1.13945 4.20881
rclavicle 3.97569e-016 -1.74931e-014
rhumerus -39.5494 -13.3478 -74.699
rradius 35.642
rwrist -10.745
rhand -20.1643 12.5783
rfingers 7.12502
rthumb 6.18117 -17.3115
lclavicle 3.97569e-016 -1.74931e-014
lhumerus -35.272 2.39949 84.2292
lradius 46.4781
lwrist 8.79345
lhand -20.1005 18.5441
lfingers 7.12502
lthumb 6.24279 -311.568
rfemur -23.3111 -21.0555 15.9119
rtibia 87.7551
rfoot -12.2419 0.209076
rtoes 7.08788
lfemur 0.203052 0.331925 -19.8664
ltibia 8.19789
lfoot 3.96253 -16.1878
ltoes 21.3065
1871
root 27.6508 18.1265 -0.144997 260.124 88.089 -93.8252
lowerback 8.4125 -1.29838 -2.15976
upperback 3.95999 -1.68424 3.64618
thorax -0.431088 -0.838715 5.14479
lowerneck -13.2529 -3.02666 -11.5544
upperneck 36.4733 -1.72368 5.46974
head 15.1534 -1.13146 4.20298
rclavicle 1.68967e-014 -1.74931e-014
rhumerus -39.1498 -12.8225 -74.9912
rradius 36.0557
rwrist -11.1453
rhand -21.1009 12.7019
rfingers 7.12502
rthumb 5.27694 -17.2124
lclavicle 1.68967e-014 -1.74931e-014
lhumerus -35.0492 2.26181 83.9827
lradius 47.5939
lwrist 9.05327
lhand -20.506 18.7597
lfingers 7.12502
lthumb 5.85135 -311.341
rfemur -23.7954 -21.2407 16.1204
rtibia 86.4446
rfoot -10.9477 0.952333
rtoes 9.89866
lfemur -0.675603 0.609463 -19.9422
ltibia 9.9165
lfoot 2.53127 -16.7176
ltoes 17.4853
1872
root 27.673 18.1113 -0.149127 264.835 88.091 -89.1914
lowerback 8.54762 -1.31205 -2.14773
upperback 3.97591 -1.70076 3.6392
thorax -0.487858 -0.845273 5.13594
lowerneck -13.2196 -2.95671 -11.4864
upperneck 36.2842 -1.65998 5.46311
head 15.0431 -1.09598 4.18716
rclavicle 1.10325e-014 -1.35174e-014
rhumerus -38.7632 -12.5862 -75.1348
rradius 36.3977
rwrist -11.332
rhand -22.1096 13.0642
rfingers 7.12502
rthumb 4.30297 -16.8721
lclavicle 1.10325e-014 -1.35174e-014
lhumerus -34.7687 2.57127 83.6461
lradius 48.4185
lwrist 8.79055
lhand -20.1194 18.2554
lfingers 7.12502
lthumb 6.22456 -311.856
rfemur -24.231 -21.2815 16.4144
rtibia 84.9638
rfoot -9.59837 1.61041
rtoes 12.039
lfemur -1.44329 1.01647 -19.9722
ltibia 11.3948
lfoot 1.63395 -17.1796
ltoes 17.3605
